<svg xmlns="http://www.w3.org/2000/svg" xmlns:xlink="http://www.w3.org/1999/xlink" width="160" zoomAndPan="magnify" viewBox="0 0 120 67.499998" height="90" preserveAspectRatio="xMidYMid meet" version="1.0"><defs><g/><clipPath id="c6bb1bfe60"><path d="M 2 6 L 28 6 L 28 18 L 2 18 Z M 2 6 " clip-rule="nonzero"/></clipPath><clipPath id="c34514d7c4"><path d="M -0.992188 13.09375 L 26.082031 2.605469 L 30.65625 14.40625 L 3.582031 24.898438 Z M -0.992188 13.09375 " clip-rule="nonzero"/></clipPath><clipPath id="e78f4bba64"><path d="M -0.992188 13.09375 L 26.082031 2.605469 L 30.65625 14.40625 L 3.582031 24.898438 Z M -0.992188 13.09375 " clip-rule="nonzero"/></clipPath><clipPath id="94ddc84f40"><path d="M 8 9 L 24 9 L 24 22 L 8 22 Z M 8 9 " clip-rule="nonzero"/></clipPath><clipPath id="83ac357d5f"><path d="M -0.992188 13.09375 L 26.082031 2.605469 L 30.65625 14.40625 L 3.582031 24.898438 Z M -0.992188 13.09375 " clip-rule="nonzero"/></clipPath><clipPath id="1d1ab5f037"><path d="M -0.992188 13.09375 L 26.082031 2.605469 L 30.65625 14.40625 L 3.582031 24.898438 Z M -0.992188 13.09375 " clip-rule="nonzero"/></clipPath><clipPath id="fc1e8e4e46"><path d="M 1 17 L 4 17 L 4 19 L 1 19 Z M 1 17 " clip-rule="nonzero"/></clipPath><clipPath id="f9433ea253"><path d="M -0.992188 13.09375 L 26.082031 2.605469 L 30.65625 14.40625 L 3.582031 24.898438 Z M -0.992188 13.09375 " clip-rule="nonzero"/></clipPath><clipPath id="a5fbd2774b"><path d="M -0.992188 13.09375 L 26.082031 2.605469 L 30.65625 14.40625 L 3.582031 24.898438 Z M -0.992188 13.09375 " clip-rule="nonzero"/></clipPath><clipPath id="4fab3b6b13"><path d="M 2 18 L 5 18 L 5 25 L 2 25 Z M 2 18 " clip-rule="nonzero"/></clipPath><clipPath id="53e92f9b16"><path d="M -0.992188 13.09375 L 26.082031 2.605469 L 30.65625 14.40625 L 3.582031 24.898438 Z M -0.992188 13.09375 " clip-rule="nonzero"/></clipPath><clipPath id="404ca19443"><path d="M -0.992188 13.09375 L 26.082031 2.605469 L 30.65625 14.40625 L 3.582031 24.898438 Z M -0.992188 13.09375 " clip-rule="nonzero"/></clipPath><clipPath id="a3388ff0b1"><path d="M 74.074219 27.105469 L 97.894531 27.105469 L 97.894531 50.925781 L 74.074219 50.925781 Z M 74.074219 27.105469 " clip-rule="nonzero"/></clipPath></defs><g fill="#ffffff" fill-opacity="1"><g transform="translate(13.464555, 28.822438)"><g><path d="M 6.21875 -10.859375 C 6.820312 -10.859375 7.332031 -10.769531 7.75 -10.59375 C 8.175781 -10.425781 8.585938 -10.1875 8.984375 -9.875 C 9.085938 -9.78125 9.1875 -9.734375 9.28125 -9.734375 C 9.476562 -9.734375 9.609375 -10.035156 9.671875 -10.640625 L 10.015625 -10.640625 C 9.972656 -9.929688 9.953125 -8.679688 9.953125 -6.890625 L 9.609375 -6.890625 C 9.535156 -7.691406 9.398438 -8.320312 9.203125 -8.78125 C 9.015625 -9.238281 8.6875 -9.625 8.21875 -9.9375 C 7.75 -10.238281 7.285156 -10.390625 6.828125 -10.390625 C 5.785156 -10.390625 5.050781 -9.882812 4.625 -8.875 C 4.207031 -7.875 4 -6.679688 4 -5.296875 C 4 -3.898438 4.207031 -2.703125 4.625 -1.703125 C 5.050781 -0.703125 5.785156 -0.203125 6.828125 -0.203125 C 7.285156 -0.203125 7.75 -0.347656 8.21875 -0.640625 C 8.6875 -0.929688 9.015625 -1.320312 9.203125 -1.8125 C 9.398438 -2.3125 9.535156 -3.007812 9.609375 -3.90625 L 9.953125 -3.90625 C 9.953125 -2.03125 9.972656 -0.726562 10.015625 0 L 9.671875 0 C 9.640625 -0.320312 9.59375 -0.550781 9.53125 -0.6875 C 9.476562 -0.820312 9.398438 -0.890625 9.296875 -0.890625 C 9.222656 -0.890625 9.117188 -0.847656 8.984375 -0.765625 C 8.535156 -0.441406 8.101562 -0.195312 7.6875 -0.03125 C 7.28125 0.125 6.785156 0.203125 6.203125 0.203125 C 5.078125 0.203125 4.085938 -0.0078125 3.234375 -0.4375 C 2.378906 -0.863281 1.71875 -1.484375 1.25 -2.296875 C 0.78125 -3.117188 0.546875 -4.097656 0.546875 -5.234375 C 0.546875 -6.335938 0.785156 -7.3125 1.265625 -8.15625 C 1.742188 -9.007812 2.410156 -9.671875 3.265625 -10.140625 C 4.128906 -10.617188 5.113281 -10.859375 6.21875 -10.859375 Z M 6.21875 -10.859375 "/></g></g></g><g fill="#ffffff" fill-opacity="1"><g transform="translate(25.741136, 28.822438)"><g><path d="M 6.21875 -10.859375 C 7.351562 -10.859375 8.347656 -10.640625 9.203125 -10.203125 C 10.054688 -9.773438 10.71875 -9.148438 11.1875 -8.328125 C 11.65625 -7.515625 11.890625 -6.539062 11.890625 -5.40625 C 11.890625 -4.3125 11.648438 -3.335938 11.171875 -2.484375 C 10.691406 -1.628906 10.019531 -0.96875 9.15625 -0.5 C 8.289062 -0.03125 7.304688 0.203125 6.203125 0.203125 C 5.078125 0.203125 4.085938 -0.0078125 3.234375 -0.4375 C 2.378906 -0.863281 1.71875 -1.484375 1.25 -2.296875 C 0.78125 -3.117188 0.546875 -4.097656 0.546875 -5.234375 C 0.546875 -6.335938 0.785156 -7.3125 1.265625 -8.15625 C 1.742188 -9.007812 2.410156 -9.671875 3.265625 -10.140625 C 4.128906 -10.617188 5.113281 -10.859375 6.21875 -10.859375 Z M 6.15625 -10.578125 C 5.664062 -10.578125 5.234375 -10.351562 4.859375 -9.90625 C 4.484375 -9.46875 4.195312 -8.847656 4 -8.046875 C 3.800781 -7.242188 3.703125 -6.328125 3.703125 -5.296875 C 3.703125 -4.253906 3.816406 -3.335938 4.046875 -2.546875 C 4.273438 -1.753906 4.582031 -1.140625 4.96875 -0.703125 C 5.363281 -0.273438 5.796875 -0.0625 6.265625 -0.0625 C 6.753906 -0.0625 7.1875 -0.28125 7.5625 -0.71875 C 7.9375 -1.164062 8.222656 -1.789062 8.421875 -2.59375 C 8.628906 -3.394531 8.734375 -4.3125 8.734375 -5.34375 C 8.734375 -6.394531 8.617188 -7.316406 8.390625 -8.109375 C 8.160156 -8.898438 7.847656 -9.507812 7.453125 -9.9375 C 7.066406 -10.363281 6.632812 -10.578125 6.15625 -10.578125 Z M 6.15625 -10.578125 "/></g></g></g><g fill="#ffffff" fill-opacity="1"><g transform="translate(39.670624, 28.822438)"><g><path d="M 5.75 -10.34375 C 5.394531 -10.320312 5.132812 -10.28125 4.96875 -10.21875 C 4.800781 -10.15625 4.6875 -10.039062 4.625 -9.875 C 4.570312 -9.707031 4.546875 -9.429688 4.546875 -9.046875 L 4.546875 -1.296875 C 4.546875 -1.015625 4.5625 -0.804688 4.59375 -0.671875 C 4.632812 -0.546875 4.703125 -0.457031 4.796875 -0.40625 C 4.898438 -0.363281 5.070312 -0.34375 5.3125 -0.34375 L 5.796875 -0.34375 C 6.148438 -0.34375 6.53125 -0.515625 6.9375 -0.859375 C 7.351562 -1.210938 7.722656 -1.675781 8.046875 -2.25 C 8.378906 -2.832031 8.601562 -3.4375 8.71875 -4.0625 L 9.0625 -4.0625 C 9.03125 -3.695312 9.015625 -3.234375 9.015625 -2.671875 C 9.015625 -1.585938 9.050781 -0.695312 9.125 0 C 8.445312 -0.03125 7.300781 -0.046875 5.6875 -0.046875 C 3.34375 -0.046875 1.585938 -0.03125 0.421875 0 L 0.421875 -0.296875 C 0.742188 -0.316406 0.976562 -0.359375 1.125 -0.421875 C 1.269531 -0.484375 1.363281 -0.597656 1.40625 -0.765625 C 1.457031 -0.929688 1.484375 -1.207031 1.484375 -1.59375 L 1.484375 -9.046875 C 1.484375 -9.429688 1.457031 -9.707031 1.40625 -9.875 C 1.351562 -10.039062 1.253906 -10.15625 1.109375 -10.21875 C 0.972656 -10.28125 0.742188 -10.320312 0.421875 -10.34375 L 0.421875 -10.640625 C 0.992188 -10.609375 1.882812 -10.59375 3.09375 -10.59375 C 4.25 -10.59375 5.132812 -10.609375 5.75 -10.640625 Z M 5.75 -10.34375 "/></g></g></g><g fill="#ffffff" fill-opacity="1"><g transform="translate(50.579801, 28.822438)"><g><path d="M 5.75 -10.34375 C 5.394531 -10.320312 5.132812 -10.28125 4.96875 -10.21875 C 4.800781 -10.15625 4.6875 -10.039062 4.625 -9.875 C 4.570312 -9.707031 4.546875 -9.429688 4.546875 -9.046875 L 4.546875 -1.296875 C 4.546875 -1.015625 4.5625 -0.804688 4.59375 -0.671875 C 4.632812 -0.546875 4.703125 -0.457031 4.796875 -0.40625 C 4.898438 -0.363281 5.070312 -0.34375 5.3125 -0.34375 L 5.796875 -0.34375 C 6.148438 -0.34375 6.53125 -0.515625 6.9375 -0.859375 C 7.351562 -1.210938 7.722656 -1.675781 8.046875 -2.25 C 8.378906 -2.832031 8.601562 -3.4375 8.71875 -4.0625 L 9.0625 -4.0625 C 9.03125 -3.695312 9.015625 -3.234375 9.015625 -2.671875 C 9.015625 -1.585938 9.050781 -0.695312 9.125 0 C 8.445312 -0.03125 7.300781 -0.046875 5.6875 -0.046875 C 3.34375 -0.046875 1.585938 -0.03125 0.421875 0 L 0.421875 -0.296875 C 0.742188 -0.316406 0.976562 -0.359375 1.125 -0.421875 C 1.269531 -0.484375 1.363281 -0.597656 1.40625 -0.765625 C 1.457031 -0.929688 1.484375 -1.207031 1.484375 -1.59375 L 1.484375 -9.046875 C 1.484375 -9.429688 1.457031 -9.707031 1.40625 -9.875 C 1.351562 -10.039062 1.253906 -10.15625 1.109375 -10.21875 C 0.972656 -10.28125 0.742188 -10.320312 0.421875 -10.34375 L 0.421875 -10.640625 C 0.992188 -10.609375 1.882812 -10.59375 3.09375 -10.59375 C 4.25 -10.59375 5.132812 -10.609375 5.75 -10.640625 Z M 5.75 -10.34375 "/></g></g></g><g fill="#ffffff" fill-opacity="1"><g transform="translate(61.488978, 28.822438)"><g><path d="M 9.015625 -2.53125 C 9.015625 -1.5 9.050781 -0.65625 9.125 0 C 8.445312 -0.03125 7.300781 -0.046875 5.6875 -0.046875 C 3.34375 -0.046875 1.585938 -0.03125 0.421875 0 L 0.421875 -0.296875 C 0.742188 -0.316406 0.976562 -0.359375 1.125 -0.421875 C 1.269531 -0.484375 1.363281 -0.597656 1.40625 -0.765625 C 1.457031 -0.929688 1.484375 -1.207031 1.484375 -1.59375 L 1.484375 -9.046875 C 1.484375 -9.429688 1.457031 -9.707031 1.40625 -9.875 C 1.351562 -10.039062 1.253906 -10.15625 1.109375 -10.21875 C 0.972656 -10.28125 0.742188 -10.320312 0.421875 -10.34375 L 0.421875 -10.640625 C 1.585938 -10.609375 3.34375 -10.59375 5.6875 -10.59375 C 7.15625 -10.59375 8.203125 -10.609375 8.828125 -10.640625 C 8.753906 -9.703125 8.71875 -8.859375 8.71875 -8.109375 C 8.71875 -7.648438 8.734375 -7.289062 8.765625 -7.03125 L 8.421875 -7.03125 C 8.234375 -8.195312 7.894531 -9.03125 7.40625 -9.53125 C 6.914062 -10.039062 6.332031 -10.296875 5.65625 -10.296875 L 5.453125 -10.296875 C 5.179688 -10.296875 4.984375 -10.269531 4.859375 -10.21875 C 4.734375 -10.175781 4.648438 -10.09375 4.609375 -9.96875 C 4.566406 -9.84375 4.546875 -9.632812 4.546875 -9.34375 L 4.546875 -5.5 L 4.6875 -5.5 C 5.207031 -5.5 5.648438 -5.703125 6.015625 -6.109375 C 6.390625 -6.523438 6.628906 -6.984375 6.734375 -7.484375 L 7.078125 -7.484375 C 7.046875 -7.066406 7.03125 -6.597656 7.03125 -6.078125 L 7.03125 -5.34375 C 7.03125 -4.832031 7.0625 -4.125 7.125 -3.21875 L 6.78125 -3.21875 C 6.6875 -3.789062 6.453125 -4.265625 6.078125 -4.640625 C 5.703125 -5.015625 5.238281 -5.203125 4.6875 -5.203125 L 4.546875 -5.203125 L 4.546875 -1.296875 C 4.546875 -1.003906 4.566406 -0.796875 4.609375 -0.671875 C 4.648438 -0.546875 4.734375 -0.457031 4.859375 -0.40625 C 4.984375 -0.363281 5.179688 -0.34375 5.453125 -0.34375 L 5.953125 -0.34375 C 6.535156 -0.34375 7.085938 -0.625 7.609375 -1.1875 C 8.128906 -1.757812 8.5 -2.664062 8.71875 -3.90625 L 9.0625 -3.90625 C 9.03125 -3.539062 9.015625 -3.082031 9.015625 -2.53125 Z M 9.015625 -2.53125 "/></g></g></g><g fill="#ffffff" fill-opacity="1"><g transform="translate(72.758791, 28.822438)"><g><path d="M 6.375 -10.859375 C 7.007812 -10.859375 7.554688 -10.769531 8.015625 -10.59375 C 8.484375 -10.425781 8.910156 -10.1875 9.296875 -9.875 C 9.398438 -9.78125 9.5 -9.734375 9.59375 -9.734375 C 9.6875 -9.734375 9.765625 -9.804688 9.828125 -9.953125 C 9.890625 -10.097656 9.9375 -10.328125 9.96875 -10.640625 L 10.3125 -10.640625 C 10.269531 -9.929688 10.25 -8.679688 10.25 -6.890625 L 9.90625 -6.890625 C 9.832031 -7.679688 9.703125 -8.304688 9.515625 -8.765625 C 9.328125 -9.222656 8.992188 -9.613281 8.515625 -9.9375 C 8.304688 -10.070312 8.0625 -10.179688 7.78125 -10.265625 C 7.507812 -10.347656 7.238281 -10.390625 6.96875 -10.390625 C 6.25 -10.390625 5.664062 -10.132812 5.21875 -9.625 C 4.769531 -9.125 4.453125 -8.484375 4.265625 -7.703125 C 4.085938 -6.929688 4 -6.128906 4 -5.296875 C 4 -3.546875 4.210938 -2.238281 4.640625 -1.375 C 5.066406 -0.519531 5.660156 -0.09375 6.421875 -0.09375 C 6.734375 -0.09375 6.976562 -0.148438 7.15625 -0.265625 C 7.363281 -0.421875 7.46875 -0.671875 7.46875 -1.015625 L 7.46875 -2.53125 C 7.46875 -3.03125 7.425781 -3.394531 7.34375 -3.625 C 7.269531 -3.863281 7.128906 -4.023438 6.921875 -4.109375 C 6.710938 -4.191406 6.390625 -4.242188 5.953125 -4.265625 L 5.953125 -4.5625 C 6.628906 -4.539062 7.585938 -4.53125 8.828125 -4.53125 C 9.859375 -4.53125 10.628906 -4.539062 11.140625 -4.5625 L 11.140625 -4.265625 C 10.960938 -4.242188 10.828125 -4.203125 10.734375 -4.140625 C 10.648438 -4.085938 10.59375 -3.972656 10.5625 -3.796875 C 10.53125 -3.628906 10.515625 -3.351562 10.515625 -2.96875 L 10.515625 0 L 10.21875 0 C 10.207031 -0.207031 10.160156 -0.398438 10.078125 -0.578125 C 10.003906 -0.765625 9.894531 -0.859375 9.75 -0.859375 C 9.539062 -0.859375 9.203125 -0.742188 8.734375 -0.515625 C 7.734375 -0.0351562 6.882812 0.203125 6.1875 0.203125 C 4.320312 0.203125 2.914062 -0.265625 1.96875 -1.203125 C 1.019531 -2.140625 0.546875 -3.484375 0.546875 -5.234375 C 0.546875 -6.335938 0.789062 -7.3125 1.28125 -8.15625 C 1.78125 -9.007812 2.46875 -9.671875 3.34375 -10.140625 C 4.226562 -10.617188 5.238281 -10.859375 6.375 -10.859375 Z M 6.375 -10.859375 "/></g></g></g><g fill="#ffffff" fill-opacity="1"><g transform="translate(85.621403, 28.822438)"><g><path d="M 9.015625 -2.53125 C 9.015625 -1.5 9.050781 -0.65625 9.125 0 C 8.445312 -0.03125 7.300781 -0.046875 5.6875 -0.046875 C 3.34375 -0.046875 1.585938 -0.03125 0.421875 0 L 0.421875 -0.296875 C 0.742188 -0.316406 0.976562 -0.359375 1.125 -0.421875 C 1.269531 -0.484375 1.363281 -0.597656 1.40625 -0.765625 C 1.457031 -0.929688 1.484375 -1.207031 1.484375 -1.59375 L 1.484375 -9.046875 C 1.484375 -9.429688 1.457031 -9.707031 1.40625 -9.875 C 1.351562 -10.039062 1.253906 -10.15625 1.109375 -10.21875 C 0.972656 -10.28125 0.742188 -10.320312 0.421875 -10.34375 L 0.421875 -10.640625 C 1.585938 -10.609375 3.34375 -10.59375 5.6875 -10.59375 C 7.15625 -10.59375 8.203125 -10.609375 8.828125 -10.640625 C 8.753906 -9.703125 8.71875 -8.859375 8.71875 -8.109375 C 8.71875 -7.648438 8.734375 -7.289062 8.765625 -7.03125 L 8.421875 -7.03125 C 8.234375 -8.195312 7.894531 -9.03125 7.40625 -9.53125 C 6.914062 -10.039062 6.332031 -10.296875 5.65625 -10.296875 L 5.453125 -10.296875 C 5.179688 -10.296875 4.984375 -10.269531 4.859375 -10.21875 C 4.734375 -10.175781 4.648438 -10.09375 4.609375 -9.96875 C 4.566406 -9.84375 4.546875 -9.632812 4.546875 -9.34375 L 4.546875 -5.5 L 4.6875 -5.5 C 5.207031 -5.5 5.648438 -5.703125 6.015625 -6.109375 C 6.390625 -6.523438 6.628906 -6.984375 6.734375 -7.484375 L 7.078125 -7.484375 C 7.046875 -7.066406 7.03125 -6.597656 7.03125 -6.078125 L 7.03125 -5.34375 C 7.03125 -4.832031 7.0625 -4.125 7.125 -3.21875 L 6.78125 -3.21875 C 6.6875 -3.789062 6.453125 -4.265625 6.078125 -4.640625 C 5.703125 -5.015625 5.238281 -5.203125 4.6875 -5.203125 L 4.546875 -5.203125 L 4.546875 -1.296875 C 4.546875 -1.003906 4.566406 -0.796875 4.609375 -0.671875 C 4.648438 -0.546875 4.734375 -0.457031 4.859375 -0.40625 C 4.984375 -0.363281 5.179688 -0.34375 5.453125 -0.34375 L 5.953125 -0.34375 C 6.535156 -0.34375 7.085938 -0.625 7.609375 -1.1875 C 8.128906 -1.757812 8.5 -2.664062 8.71875 -3.90625 L 9.0625 -3.90625 C 9.03125 -3.539062 9.015625 -3.082031 9.015625 -2.53125 Z M 9.015625 -2.53125 "/></g></g></g><g clip-path="url(#c6bb1bfe60)"><g clip-path="url(#c34514d7c4)"><g clip-path="url(#e78f4bba64)"><path fill="#ffffff" d="M 16.085938 15.351562 L 27.464844 6.230469 L 13.097656 7.636719 L 2.199219 17.992188 L 16.085938 15.351562 " fill-opacity="1" fill-rule="nonzero"/></g></g></g><g clip-path="url(#94ddc84f40)"><g clip-path="url(#83ac357d5f)"><g clip-path="url(#1d1ab5f037)"><path fill="#ffffff" d="M 20.53125 9.191406 L 23.609375 17.136719 C 21.738281 15.097656 19.007812 14.914062 16.320312 15.957031 C 13.71875 16.964844 11.867188 18.804688 11.757812 21.472656 L 8.765625 13.75 L 20.53125 9.191406 " fill-opacity="1" fill-rule="nonzero"/></g></g></g><g clip-path="url(#fc1e8e4e46)"><g clip-path="url(#f9433ea253)"><g clip-path="url(#a5fbd2774b)"><path fill="#ffffff" d="M 1.875 18.101562 C 1.996094 18.410156 2.339844 18.570312 2.644531 18.449219 C 2.949219 18.332031 3.097656 17.984375 2.976562 17.675781 C 2.855469 17.363281 2.511719 17.207031 2.207031 17.324219 C 1.902344 17.441406 1.753906 17.789062 1.875 18.101562 " fill-opacity="1" fill-rule="nonzero"/></g></g></g><g clip-path="url(#4fab3b6b13)"><g clip-path="url(#53e92f9b16)"><g clip-path="url(#404ca19443)"><path fill="#ffffff" d="M 2.636719 18.453125 C 2.636719 18.453125 2.207031 19.195312 3.351562 20.300781 C 4.5 21.402344 3.371094 24.296875 3.371094 24.296875 L 4.210938 23.226562 C 4.210938 23.226562 4.210938 24.027344 4.246094 24.386719 C 4.246094 24.386719 5.839844 21.792969 3.855469 19.945312 C 1.871094 18.09375 2.636719 18.453125 2.636719 18.453125 " fill-opacity="1" fill-rule="nonzero"/></g></g></g><path fill="#ffffff" d="M 89.546875 34.449219 C 89.515625 34.484375 89.476562 34.511719 89.433594 34.535156 C 89.171875 34.683594 88.84375 34.59375 88.695312 34.332031 C 88.453125 33.914062 88.15625 33.523438 87.8125 33.175781 C 87.601562 32.964844 87.601562 32.621094 87.8125 32.410156 C 88.023438 32.199219 88.367188 32.199219 88.578125 32.410156 C 88.992188 32.824219 89.347656 33.292969 89.636719 33.796875 C 89.757812 34.015625 89.714844 34.28125 89.546875 34.449219 " fill-opacity="1" fill-rule="nonzero"/><path fill="#ffffff" d="M 86.839844 31.96875 C 86.683594 32.125 86.445312 32.175781 86.234375 32.078125 C 84.96875 31.5 83.492188 31.433594 82.179688 31.894531 C 81.894531 31.996094 81.585938 31.847656 81.488281 31.5625 C 81.390625 31.28125 81.539062 30.972656 81.820312 30.875 C 83.417969 30.3125 85.144531 30.390625 86.683594 31.09375 C 86.953125 31.21875 87.074219 31.539062 86.949219 31.808594 C 86.921875 31.871094 86.886719 31.925781 86.839844 31.96875 " fill-opacity="1" fill-rule="nonzero"/><g clip-path="url(#a3388ff0b1)"><path fill="#ffffff" d="M 91.199219 37.007812 C 91.199219 38.9375 90.449219 40.75 89.082031 42.113281 C 87.71875 43.476562 85.90625 44.230469 83.980469 44.230469 C 82.050781 44.230469 80.238281 43.476562 78.875 42.113281 C 77.511719 40.75 76.757812 38.9375 76.757812 37.007812 C 76.757812 35.082031 77.511719 33.269531 78.875 31.90625 C 80.238281 30.539062 82.050781 29.789062 83.980469 29.789062 C 85.90625 29.789062 87.71875 30.539062 89.082031 31.90625 C 90.449219 33.269531 91.199219 35.082031 91.199219 37.007812 Z M 77.597656 30.628906 C 74.074219 34.152344 74.074219 39.867188 77.597656 43.390625 C 80.976562 46.773438 86.375 46.910156 89.921875 43.800781 L 90.261719 44.144531 C 90.15625 44.546875 90.257812 44.992188 90.574219 45.304688 L 95.722656 50.457031 C 96.195312 50.925781 96.957031 50.925781 97.425781 50.457031 C 97.894531 49.988281 97.894531 49.222656 97.425781 48.753906 L 92.273438 43.605469 C 91.960938 43.289062 91.515625 43.1875 91.113281 43.292969 L 90.769531 42.949219 C 93.878906 39.40625 93.742188 34.007812 90.359375 30.628906 C 86.835938 27.105469 81.121094 27.105469 77.597656 30.628906 " fill-opacity="1" fill-rule="nonzero"/></g><g fill="#ffffff" fill-opacity="1"><g transform="translate(33.46948, 42.733436)"><g><path d="M 9.078125 -10.9375 C 9.003906 -9.96875 8.96875 -9.101562 8.96875 -8.34375 C 8.96875 -7.875 8.984375 -7.503906 9.015625 -7.234375 L 8.65625 -7.234375 C 8.40625 -8.429688 8.023438 -9.285156 7.515625 -9.796875 C 7.003906 -10.316406 6.4375 -10.578125 5.8125 -10.578125 L 5.609375 -10.578125 C 5.328125 -10.578125 5.125 -10.554688 5 -10.515625 C 4.875 -10.472656 4.785156 -10.382812 4.734375 -10.25 C 4.691406 -10.125 4.671875 -9.910156 4.671875 -9.609375 L 4.671875 -5.65625 L 4.828125 -5.65625 C 5.359375 -5.65625 5.8125 -5.863281 6.1875 -6.28125 C 6.570312 -6.707031 6.816406 -7.179688 6.921875 -7.703125 L 7.28125 -7.703125 C 7.25 -7.265625 7.234375 -6.78125 7.234375 -6.25 L 7.234375 -5.5 C 7.234375 -4.976562 7.265625 -4.25 7.328125 -3.3125 L 6.96875 -3.3125 C 6.875 -3.894531 6.632812 -4.378906 6.25 -4.765625 C 5.863281 -5.148438 5.390625 -5.34375 4.828125 -5.34375 L 4.671875 -5.34375 L 4.671875 -1.796875 C 4.671875 -1.359375 4.710938 -1.039062 4.796875 -0.84375 C 4.878906 -0.65625 5.035156 -0.523438 5.265625 -0.453125 C 5.503906 -0.390625 5.875 -0.359375 6.375 -0.359375 L 6.375 0 C 4.988281 -0.03125 3.929688 -0.046875 3.203125 -0.046875 C 2.710938 -0.046875 2.035156 -0.0351562 1.171875 -0.015625 L 0.4375 0 L 0.4375 -0.3125 C 0.757812 -0.332031 0.992188 -0.375 1.140625 -0.4375 C 1.296875 -0.5 1.398438 -0.613281 1.453125 -0.78125 C 1.503906 -0.957031 1.53125 -1.242188 1.53125 -1.640625 L 1.53125 -9.296875 C 1.53125 -9.691406 1.5 -9.976562 1.4375 -10.15625 C 1.382812 -10.332031 1.285156 -10.445312 1.140625 -10.5 C 0.992188 -10.5625 0.757812 -10.601562 0.4375 -10.625 L 0.4375 -10.9375 C 1.625 -10.90625 3.425781 -10.890625 5.84375 -10.890625 C 7.351562 -10.890625 8.429688 -10.90625 9.078125 -10.9375 Z M 9.078125 -10.9375 "/></g></g></g><g fill="#ffffff" fill-opacity="1"><g transform="translate(44.408994, 42.733436)"><g><path d="M 5.765625 -10.625 C 5.429688 -10.601562 5.191406 -10.5625 5.046875 -10.5 C 4.898438 -10.445312 4.800781 -10.332031 4.75 -10.15625 C 4.695312 -9.976562 4.671875 -9.691406 4.671875 -9.296875 L 4.671875 -1.640625 C 4.671875 -1.242188 4.695312 -0.957031 4.75 -0.78125 C 4.8125 -0.613281 4.910156 -0.5 5.046875 -0.4375 C 5.191406 -0.375 5.429688 -0.332031 5.765625 -0.3125 L 5.765625 0 C 5.171875 -0.03125 4.3125 -0.046875 3.1875 -0.046875 C 1.9375 -0.046875 1.019531 -0.03125 0.4375 0 L 0.4375 -0.3125 C 0.757812 -0.332031 0.992188 -0.375 1.140625 -0.4375 C 1.296875 -0.5 1.398438 -0.613281 1.453125 -0.78125 C 1.503906 -0.957031 1.53125 -1.242188 1.53125 -1.640625 L 1.53125 -9.296875 C 1.53125 -9.691406 1.5 -9.976562 1.4375 -10.15625 C 1.382812 -10.332031 1.285156 -10.445312 1.140625 -10.5 C 0.992188 -10.5625 0.757812 -10.601562 0.4375 -10.625 L 0.4375 -10.9375 C 1.019531 -10.90625 1.9375 -10.890625 3.1875 -10.890625 C 4.300781 -10.890625 5.160156 -10.90625 5.765625 -10.9375 Z M 5.765625 -10.625 "/></g></g></g><g fill="#ffffff" fill-opacity="1"><g transform="translate(52.150091, 42.733436)"><g><path d="M 10.9375 -10.625 C 10.625 -10.5625 10.390625 -10.453125 10.234375 -10.296875 C 10.078125 -10.148438 9.972656 -9.921875 9.921875 -9.609375 C 9.867188 -9.296875 9.84375 -8.832031 9.84375 -8.21875 L 9.84375 0 C 9.632812 -0.0195312 9.460938 -0.03125 9.328125 -0.03125 C 9.210938 -0.03125 9.023438 -0.0195312 8.765625 0 L 1.921875 -7.484375 L 1.921875 -3.03125 C 1.921875 -2.269531 1.953125 -1.71875 2.015625 -1.375 C 2.078125 -1.039062 2.210938 -0.796875 2.421875 -0.640625 C 2.628906 -0.492188 2.984375 -0.382812 3.484375 -0.3125 L 3.484375 0 C 3.054688 -0.03125 2.476562 -0.046875 1.75 -0.046875 C 1.195312 -0.046875 0.769531 -0.03125 0.46875 0 L 0.46875 -0.3125 C 0.78125 -0.382812 1.015625 -0.492188 1.171875 -0.640625 C 1.328125 -0.785156 1.429688 -1.015625 1.484375 -1.328125 C 1.535156 -1.640625 1.5625 -2.101562 1.5625 -2.71875 L 1.5625 -9.296875 C 1.5625 -9.691406 1.53125 -9.976562 1.46875 -10.15625 C 1.414062 -10.332031 1.316406 -10.445312 1.171875 -10.5 C 1.023438 -10.5625 0.789062 -10.601562 0.46875 -10.625 L 0.46875 -10.9375 C 0.769531 -10.90625 1.195312 -10.890625 1.75 -10.890625 C 2.300781 -10.890625 2.773438 -10.90625 3.171875 -10.9375 L 9.484375 -4.265625 L 9.484375 -7.90625 C 9.484375 -8.675781 9.453125 -9.226562 9.390625 -9.5625 C 9.328125 -9.894531 9.191406 -10.140625 8.984375 -10.296875 C 8.773438 -10.453125 8.421875 -10.5625 7.921875 -10.625 L 7.921875 -10.9375 C 8.347656 -10.90625 8.925781 -10.890625 9.65625 -10.890625 C 10.207031 -10.890625 10.632812 -10.90625 10.9375 -10.9375 Z M 10.9375 -10.625 "/></g></g></g><g fill="#ffffff" fill-opacity="1"><g transform="translate(65.005564, 42.733436)"><g><path d="M 5.578125 -10.9375 C 7.710938 -10.9375 9.304688 -10.476562 10.359375 -9.5625 C 11.421875 -8.65625 11.953125 -7.332031 11.953125 -5.59375 C 11.953125 -4.46875 11.691406 -3.484375 11.171875 -2.640625 C 10.660156 -1.804688 9.914062 -1.15625 8.9375 -0.6875 C 7.957031 -0.226562 6.789062 0 5.4375 0 L 4.484375 -0.015625 C 3.859375 -0.0351562 3.40625 -0.046875 3.125 -0.046875 C 1.914062 -0.046875 1.019531 -0.03125 0.4375 0 L 0.4375 -0.3125 C 0.757812 -0.332031 0.992188 -0.375 1.140625 -0.4375 C 1.296875 -0.5 1.398438 -0.613281 1.453125 -0.78125 C 1.503906 -0.957031 1.53125 -1.242188 1.53125 -1.640625 L 1.53125 -9.296875 C 1.53125 -9.691406 1.5 -9.976562 1.4375 -10.15625 C 1.382812 -10.332031 1.285156 -10.445312 1.140625 -10.5 C 0.992188 -10.5625 0.757812 -10.601562 0.4375 -10.625 L 0.4375 -10.9375 C 0.90625 -10.90625 1.601562 -10.890625 2.53125 -10.890625 L 3.09375 -10.890625 L 3.765625 -10.90625 C 4.628906 -10.925781 5.234375 -10.9375 5.578125 -10.9375 Z M 5.8125 -10.65625 C 5.488281 -10.65625 5.25 -10.617188 5.09375 -10.546875 C 4.9375 -10.484375 4.828125 -10.359375 4.765625 -10.171875 C 4.703125 -9.984375 4.671875 -9.703125 4.671875 -9.328125 L 4.671875 -1.609375 C 4.671875 -1.234375 4.703125 -0.953125 4.765625 -0.765625 C 4.828125 -0.585938 4.9375 -0.460938 5.09375 -0.390625 C 5.25 -0.316406 5.492188 -0.28125 5.828125 -0.28125 C 6.847656 -0.28125 7.582031 -0.71875 8.03125 -1.59375 C 8.488281 -2.476562 8.71875 -3.789062 8.71875 -5.53125 C 8.71875 -7.269531 8.484375 -8.554688 8.015625 -9.390625 C 7.546875 -10.234375 6.8125 -10.65625 5.8125 -10.65625 Z M 5.8125 -10.65625 "/></g></g></g><g fill="#ffffff" fill-opacity="1"><g transform="translate(79.081693, 42.733436)"><g><path d="M 9.265625 -2.59375 C 9.265625 -1.539062 9.300781 -0.675781 9.375 0 C 8.675781 -0.03125 7.5 -0.046875 5.84375 -0.046875 C 3.425781 -0.046875 1.625 -0.03125 0.4375 0 L 0.4375 -0.3125 C 0.757812 -0.332031 0.992188 -0.375 1.140625 -0.4375 C 1.296875 -0.5 1.398438 -0.613281 1.453125 -0.78125 C 1.503906 -0.957031 1.53125 -1.242188 1.53125 -1.640625 L 1.53125 -9.296875 C 1.53125 -9.691406 1.5 -9.976562 1.4375 -10.15625 C 1.382812 -10.332031 1.285156 -10.445312 1.140625 -10.5 C 0.992188 -10.5625 0.757812 -10.601562 0.4375 -10.625 L 0.4375 -10.9375 C 1.625 -10.90625 3.425781 -10.890625 5.84375 -10.890625 C 7.351562 -10.890625 8.429688 -10.90625 9.078125 -10.9375 C 9.003906 -9.96875 8.96875 -9.101562 8.96875 -8.34375 C 8.96875 -7.875 8.984375 -7.503906 9.015625 -7.234375 L 8.65625 -7.234375 C 8.46875 -8.429688 8.117188 -9.285156 7.609375 -9.796875 C 7.109375 -10.316406 6.507812 -10.578125 5.8125 -10.578125 L 5.609375 -10.578125 C 5.328125 -10.578125 5.125 -10.554688 5 -10.515625 C 4.875 -10.472656 4.785156 -10.382812 4.734375 -10.25 C 4.691406 -10.125 4.671875 -9.910156 4.671875 -9.609375 L 4.671875 -5.65625 L 4.828125 -5.65625 C 5.359375 -5.65625 5.8125 -5.863281 6.1875 -6.28125 C 6.570312 -6.707031 6.816406 -7.179688 6.921875 -7.703125 L 7.28125 -7.703125 C 7.25 -7.265625 7.234375 -6.78125 7.234375 -6.25 L 7.234375 -5.5 C 7.234375 -4.976562 7.265625 -4.25 7.328125 -3.3125 L 6.96875 -3.3125 C 6.875 -3.894531 6.632812 -4.378906 6.25 -4.765625 C 5.863281 -5.148438 5.390625 -5.34375 4.828125 -5.34375 L 4.671875 -5.34375 L 4.671875 -1.328125 C 4.671875 -1.023438 4.691406 -0.8125 4.734375 -0.6875 C 4.785156 -0.5625 4.875 -0.472656 5 -0.421875 C 5.125 -0.378906 5.328125 -0.359375 5.609375 -0.359375 L 6.125 -0.359375 C 6.71875 -0.359375 7.28125 -0.648438 7.8125 -1.234375 C 8.351562 -1.816406 8.738281 -2.742188 8.96875 -4.015625 L 9.3125 -4.015625 C 9.28125 -3.648438 9.265625 -3.175781 9.265625 -2.59375 Z M 9.265625 -2.59375 "/></g></g></g><g fill="#ffffff" fill-opacity="1"><g transform="translate(90.670159, 42.733436)"><g><path d="M 11.53125 -0.625 C 11.21875 -0.3125 10.875 -0.09375 10.5 0.03125 C 10.132812 0.15625 9.703125 0.21875 9.203125 0.21875 C 8.492188 0.21875 7.941406 0.09375 7.546875 -0.15625 C 7.160156 -0.414062 6.921875 -0.847656 6.828125 -1.453125 L 6.59375 -3 C 6.488281 -3.71875 6.347656 -4.257812 6.171875 -4.625 C 5.992188 -5 5.722656 -5.1875 5.359375 -5.1875 L 4.671875 -5.1875 L 4.671875 -1.640625 C 4.671875 -1.242188 4.695312 -0.957031 4.75 -0.78125 C 4.8125 -0.613281 4.910156 -0.5 5.046875 -0.4375 C 5.191406 -0.375 5.429688 -0.332031 5.765625 -0.3125 L 5.765625 0 C 5.171875 -0.03125 4.3125 -0.046875 3.1875 -0.046875 C 1.9375 -0.046875 1.019531 -0.03125 0.4375 0 L 0.4375 -0.3125 C 0.757812 -0.332031 0.992188 -0.375 1.140625 -0.4375 C 1.296875 -0.5 1.398438 -0.613281 1.453125 -0.78125 C 1.503906 -0.957031 1.53125 -1.242188 1.53125 -1.640625 L 1.53125 -9.296875 C 1.53125 -9.691406 1.5 -9.976562 1.4375 -10.15625 C 1.382812 -10.332031 1.285156 -10.445312 1.140625 -10.5 C 0.992188 -10.5625 0.757812 -10.601562 0.4375 -10.625 L 0.4375 -10.9375 C 1.019531 -10.90625 1.90625 -10.890625 3.09375 -10.890625 L 4.875 -10.90625 C 5.070312 -10.914062 5.304688 -10.921875 5.578125 -10.921875 C 7.140625 -10.921875 8.304688 -10.695312 9.078125 -10.25 C 9.847656 -9.8125 10.234375 -9.140625 10.234375 -8.234375 C 10.234375 -7.460938 9.941406 -6.800781 9.359375 -6.25 C 8.785156 -5.707031 7.816406 -5.375 6.453125 -5.25 C 7.503906 -5.175781 8.296875 -4.976562 8.828125 -4.65625 C 9.367188 -4.332031 9.703125 -3.859375 9.828125 -3.234375 L 10.15625 -1.625 C 10.226562 -1.238281 10.3125 -0.972656 10.40625 -0.828125 C 10.507812 -0.691406 10.65625 -0.625 10.84375 -0.625 C 11.03125 -0.625 11.191406 -0.6875 11.328125 -0.8125 Z M 5.5 -10.625 C 5.257812 -10.625 5.082031 -10.585938 4.96875 -10.515625 C 4.851562 -10.453125 4.773438 -10.328125 4.734375 -10.140625 C 4.691406 -9.953125 4.671875 -9.671875 4.671875 -9.296875 L 4.671875 -5.5 L 5.078125 -5.5 C 5.816406 -5.5 6.316406 -5.722656 6.578125 -6.171875 C 6.847656 -6.617188 6.984375 -7.25 6.984375 -8.0625 C 6.984375 -8.90625 6.867188 -9.539062 6.640625 -9.96875 C 6.410156 -10.40625 6.03125 -10.625 5.5 -10.625 Z M 5.5 -10.625 "/></g></g></g></svg>